<svg version="1.2" xmlns="http://www.w3.org/2000/svg" viewBox="0 0 206 206" width="256" height="256">
	<style>
		.s0 { fill: none;stroke: #000000;stroke-miterlimit:100;stroke-width: 4.3 } 
	</style>
	<path id="Shape 1" fill-rule="evenodd" class="s0" d="m144.09 122.16l-60.25 21.93-21.93-60.25 60.25-21.93z"/>
	<path id="Shape 1 copy 7" fill-rule="evenodd" class="s0" d="m154.52 116.8l-65.32 37.72-37.72-65.32 65.32-37.72z"/>
	<path id="Shape 1 copy 6" fill-rule="evenodd" class="s0" d="m165.51 108.47l-67.98 57.04-57.04-67.98 67.98-57.04z"/>
	<path id="Shape 1 copy 5" fill-rule="evenodd" class="s0" d="m176.54 96.57l-67.11 79.97-79.97-67.11 67.11-79.97z"/>
	<path id="Shape 1 copy 4" fill-rule="evenodd" class="s0" d="m186.89 80.52l-61.41 106.37-106.37-61.41 61.41-106.37z"/>
	<path id="Shape 1 copy 3" fill-rule="evenodd" class="s0" d="m195.6 59.82l-49.42 135.78-135.78-49.42 49.42-135.78z"/>
	<path id="Shape 1 copy 2" fill-rule="evenodd" class="s0" d="m201.47 34.05l-29.52 167.42-167.42-29.52 29.52-167.42z"/>
	<path id="Shape 1 copy" fill-rule="evenodd" class="s0" d="m203 3v200h-200v-200z"/>
</svg>